<svg width="430" height="233" viewBox="0 0 430 233" fill="none" xmlns="http://www.w3.org/2000/svg">
<g clip-path="url(#clip0_481_682)">
<path d="M199.859 49.2345C197.912 50.3142 192.505 52.6895 188.395 54.417C186.881 55.0649 185.584 55.7127 184.718 55.9286C170.443 62.1909 150.327 69.5329 141.459 72.5561C123.939 77.7386 107.284 83.785 88.6821 86.1603L88.0332 86.3763C75.488 88.5357 56.8864 90.4791 45.8552 82.7053C33.5262 74.0676 32.2284 63.7025 36.5544 53.5533C41.9618 39.3012 57.9678 24.8332 79.3813 16.1955C80.4628 15.7637 81.5443 15.3318 82.4095 14.8999C83.7073 14.468 85.0051 14.0361 86.0865 13.6043C98.8481 9.50138 111.393 7.9898 122.208 9.0695C126.967 9.50138 131.293 10.3651 135.186 11.6608C135.402 11.8767 135.835 11.8767 136.051 12.0927C157.032 20.5144 153.355 43.1881 153.355 43.1881C157.897 23.7535 148.38 5.39851 125.02 1.29563C86.7354 -5.39853 39.7988 12.9564 15.7898 42.5403C4.32599 56.7924 -9.30076 81.4096 8.86825 96.0936C11.6801 98.4689 15.1409 100.196 18.6016 101.708C24.8743 104.299 31.1469 105.379 37.8521 105.811C-6.48889 90.911 12.1127 60.8953 12.1127 60.8953C8.21935 72.5561 10.8149 80.9778 15.7898 87.24C19.6831 92.4226 25.7395 96.5255 33.0936 99.3327C49.5322 105.379 72.8924 105.379 97.5503 98.4689C100.146 97.8211 102.741 96.9574 105.553 96.0936C137.782 85.2966 169.577 66.9416 186.881 57.2243C194.884 52.2576 199.859 49.2345 199.859 49.2345Z" fill="#EE7203"/>
<path d="M426.107 71.4763C419.401 53.9851 404.261 40.5968 383.929 31.7433C381.982 30.8795 380.035 30.2317 378.089 29.3679C402.314 39.5171 412.047 63.2706 412.047 63.2706C424.16 96.3095 401.449 123.302 399.069 126.973C400.151 124.814 401.232 122.87 402.098 120.927C411.398 103.436 413.994 85.5125 408.154 69.3169C401.881 51.1779 386.092 37.5737 364.678 29.3679C349.321 23.5375 331.152 20.5143 311.469 20.5143H311.685C277.51 20.5143 252.852 28.5041 249.391 29.7998C242.037 31.9592 235.116 34.7664 228.627 38.0055C228.627 38.0055 282.701 11.8767 335.91 33.0389C341.318 35.4142 346.293 38.4374 350.402 42.1084C355.594 46.6432 359.703 51.8257 362.299 58.088C379.17 96.5255 338.073 152.022 270.156 182.254C202.455 212.486 133.672 206.007 116.801 167.57C109.23 150.295 113.34 129.348 126.534 108.834C110.961 130.86 106.419 149.431 106.635 163.899C107.067 169.729 108.149 175.56 110.312 181.174C120.045 206.439 143.405 222.635 174.552 229.761H174.769C192.938 233.216 217.379 233.648 230.573 232.568C242.037 231.488 252.636 230.193 262.586 228.465C275.78 225.874 289.406 221.987 303.249 217.236C390.634 186.789 445.573 121.575 426.107 71.4763Z" fill="#E30613"/>
</g>
<defs>
<clipPath id="clip0_481_682">
<rect width="430" height="233" fill="white"/>
</clipPath>
</defs>
</svg>
